<svg xmlns="http://www.w3.org/2000/svg" viewBox="0 0 50 50"><path d="M 4 4 L 4 5 L 4 18 L 18 18 L 18 4 L 4 4 z M 32 4 L 32 5 L 32 18 L 46 18 L 46 4 L 32 4 z M 6 6 L 16 6 L 16 16 L 6 16 L 6 6 z M 20 6 L 20 12 L 24 12 L 24 15 L 20 15 L 20 20 L 11 20 L 11 24 L 7 24 L 7 30 L 13 30 L 13 26 L 16 26 L 16 30 L 22 30 L 22 22 L 24 22 L 24 26 L 31 26 L 31 29 L 36 29 L 36 32 L 28 32 L 28 36 L 24 36 L 24 42 L 30 42 L 30 38 L 36 38 L 36 46 L 46 46 L 46 36 L 38 36 L 38 34 L 46 34 L 46 24 L 40 24 L 40 27 L 38 27 L 38 20 L 26 20 L 26 17 L 30 17 L 30 10 L 26 10 L 26 6 L 20 6 z M 34 6 L 44 6 L 44 16 L 34 16 L 34 6 z M 8 8 L 8 14 L 14 14 L 14 8 L 8 8 z M 36 8 L 36 14 L 42 14 L 42 8 L 36 8 z M 4 32 L 4 33 L 4 46 L 18 46 L 18 32 L 4 32 z M 6 34 L 16 34 L 16 44 L 6 44 L 6 34 z M 8 36 L 8 42 L 14 42 L 14 36 L 8 36 z"></path></svg>